<?xml version="1.0" encoding="utf-8"?>
<!-- Generator: Adobe Illustrator 27.5.0, SVG Export Plug-In . SVG Version: 6.00 Build 0)  -->
<svg version="1.1" xmlns="http://www.w3.org/2000/svg" xmlns:xlink="http://www.w3.org/1999/xlink" x="0px" y="0px"
	 viewBox="0 0 500 500" style="enable-background:new 0 0 500 500;" xml:space="preserve">
<g id="BACKGROUND">
	<rect style="fill:#E6F3FC;" width="500" height="500"/>
</g>
<g id="OBJECTS">
	<g>
		<g>
			<path style="fill:#CAE8FA;" d="M247.577,354.317c-30.2,1.888-32.185-20.162-49.756-21.208
				c-17.798-1.059-34.657,7.068-51.114,13.928c-58.218,24.267-84.804,4.759-79.79-28.043c6.471-42.334,30.2-74.151,12.134-105.43
				c-22.052-38.179-20.677-74.41,4.492-93.965s78.558,8.488,99.305-9.44c32.447-28.037,55.831-61.347,100.906-57.827
				c16.417,1.282,29.632,11.366,34.986,35.458c9.487,42.691,13.504,63.487,40.265,75.697c15.33,6.994,78.242,12.889,85.601,43.078
				c7.359,30.189-24.729,41.514-30.975,65.121c-4.755,17.971,12.988,60.252-21.526,88.025
				c-27.491,22.121-48.805-16.178-74.421-18.605C292.068,338.678,277.777,352.43,247.577,354.317z"/>
		</g>
		<g>
			<path style="fill:#CAE8FA;" d="M396.565,166.253c2.97,0.495,53.205,10.146,59.144,38.604c1.732,11.631,16.795,8.527,12.373-4.949
				C461.186,178.893,436.159,168.728,396.565,166.253z"/>
			<path style="fill:#CAE8FA;" d="M284.034,44.684c12.55,1.902,33.502,7.907,39.745,29.34s12.069,52.854,12.069,52.854
				s4.162-32.253-3.121-60.137c-6.652-25.467-32.253-33.71-45.155-33.502C271.801,33.494,277.168,43.644,284.034,44.684z"/>
			<path style="fill:#CAE8FA;" d="M69.177,276.05c-8.255,17.885-15.015,47.755-8.938,65.119
				c4.815,13.758,11.086,16.666,13.979,18.851c9.181,6.936,1.506,21.008-11.927,9.495c-12.277-10.523-18.439-32.955-12.631-55.16
				C55.862,290.643,69.177,276.05,69.177,276.05z"/>
			<path style="fill:#CAE8FA;" d="M463.745,224.65c0,2.484-2.013,4.497-4.497,4.497c-2.484,0-4.497-2.014-4.497-4.497
				s2.014-4.497,4.497-4.497C461.731,220.152,463.745,222.166,463.745,224.65z"/>
			<path style="fill:#CAE8FA;" d="M263.848,40.401c0,1.998-1.62,3.618-3.618,3.618c-1.998,0-3.618-1.62-3.618-3.618
				c0-1.998,1.62-3.618,3.618-3.618C262.228,36.783,263.848,38.403,263.848,40.401z"/>
			<path style="fill:#CAE8FA;" d="M95.957,369.966c0,2.813-2.281,5.094-5.094,5.094s-5.094-2.281-5.094-5.094
				s2.281-5.094,5.094-5.094S95.957,367.153,95.957,369.966z"/>
			<path style="fill:#CAE8FA;" d="M65.481,128.296c-9.565,12.941-16.598,41.354,0.844,78.488
				c-24.193-23.349-26.183-58.834-13.785-80.738C60.98,111.136,71.108,119.294,65.481,128.296z"/>
			<circle style="fill:#CAE8FA;" cx="73.64" cy="112.543" r="6.189"/>
		</g>
		<g>
			<path style="fill:#008EAE;" d="M427.835,376.474c0.932-3.013-3.302-11.015-8.21-12.642
				C419.9,368.949,424.49,375.276,427.835,376.474z"/>
			<path style="fill:#00AB92;" d="M420.317,379.921c1.652-3.22-1.545-13.107-6.77-15.92
				C412.841,369.84,416.773,377.903,420.317,379.921z"/>
			<path style="fill:#008EAE;" d="M412.326,385.435c2.315-3.999-1.121-16.811-7.6-20.737
				C403.447,372.097,407.938,382.632,412.326,385.435z"/>
			<path style="fill:#00AB92;" d="M398.366,392.153c4.068-4.155,3.868-20.848-2.811-27.652
				C391.693,373.125,393.889,387.369,398.366,392.153z"/>
			<path style="fill:#008EAE;" d="M388.288,397.402c2.118-6.011,3.472-27.226-3.34-33.897
				C381.257,372.205,384.274,392.177,388.288,397.402z"/>
			<path style="fill:#00AB92;" d="M375.459,390.336c2.315-4.588,5.589-21.415,0.83-27.453
				C372.439,369.459,372.788,385.743,375.459,390.336z"/>
			<path style="fill:#008EAE;" d="M365.912,382.861c1.936-3.52,4.963-16.574,1.413-21.423
				C364.135,366.467,363.954,379.198,365.912,382.861z"/>
			<path style="fill:#00AB92;" d="M359.661,373.98c1.148-2.458,2.607-11.389-0.001-14.499
				C357.734,363.013,358.179,371.599,359.661,373.98z"/>
			<path style="fill:#00AB92;" d="M424.697,349.009c1.642,2.692-0.502,11.488-4.862,14.268
				C418.847,358.248,421.747,350.989,424.697,349.009z"/>
			<path style="fill:#008EAE;" d="M418.584,347.596c1.804,3.137-0.916,13.166-6.001,16.226
				C411.598,358.023,415.141,349.781,418.584,347.596z"/>
			<path style="fill:#00AB92;" d="M410.729,342.934c2.508,3.88-0.295,16.845-6.574,21.085
				C402.516,356.691,406.484,345.949,410.729,342.934z"/>
			<path style="fill:#008EAE;" d="M400.96,337.044c3.614,4.555,1.683,21.137-5.666,27.211
				C392.348,355.277,396.01,341.337,400.96,337.044z"/>
			<path style="fill:#00AB92;" d="M391.932,329.749c1.498,6.194,0.694,27.438-6.76,33.383
				C382.383,354.103,387.409,334.539,391.932,329.749z"/>
			<path style="fill:#008EAE;" d="M379.516,335.1c1.597,4.885,2.297,22.013-3.318,27.265
				C373.383,355.283,376.183,339.238,379.516,335.1z"/>
			<path style="fill:#00AB92;" d="M372.86,339.783c0.781,3.941-0.284,17.298-5.134,20.847
				C366.206,354.87,369.885,342.681,372.86,339.783z"/>
			<path style="fill:#008EAE;" d="M364.879,345.338c0.136,2.709-1.881,11.531-5.469,13.427
				C358.957,354.768,362.608,346.984,364.879,345.338z"/>
			<path style="fill:none;stroke:#006A88;stroke-linecap:round;stroke-miterlimit:10;" d="M350.109,355.854
				c23.48,10.087,61.06,9.627,73.294,7.175"/>
			<path style="fill:#008EAE;" d="M423.498,362.934c3.243,0.996,11.843-3.577,13.582-8.861
				C431.575,354.38,424.779,359.332,423.498,362.934z"/>
			<path style="fill:#00AB92;" d="M423.797,362.87c1.374,3.102,10.464,6.599,15.595,4.449
				C435.552,363.362,427.356,361.476,423.797,362.87z"/>
		</g>
		<g>
			<path style="fill:#008EAE;" d="M90.461,299.798c-2.3,2.158-2.576,11.207,0.886,15.047
				C93.638,310.261,92.776,302.492,90.461,299.798z"/>
			<path style="fill:#00AB92;" d="M98.7,300.518c-3.028,1.982-5.137,12.157-1.986,17.186
				C100.214,312.978,100.783,304.025,98.7,300.518z"/>
			<path style="fill:#008EAE;" d="M108.373,299.677c-3.989,2.331-7.337,15.167-3.646,21.783
				C109.496,315.66,110.801,304.282,108.373,299.677z"/>
			<path style="fill:#00AB92;" d="M123.828,300.739c-5.59,1.601-13.669,16.209-11.228,25.426
				C120.221,320.578,125.355,307.11,123.828,300.739z"/>
			<path style="fill:#008EAE;" d="M135.184,301.158c-4.813,4.177-16.479,21.949-13.855,31.115
				C128.837,326.536,136.09,307.685,135.184,301.158z"/>
			<path style="fill:#00AB92;" d="M142.841,313.643c-4.281,2.844-15.446,15.852-14.294,23.453
				C135.145,333.284,142.892,318.956,142.841,313.643z"/>
			<path style="fill:#008EAE;" d="M147.444,324.861c-3.423,2.102-12.508,11.953-11.82,17.923
				C140.884,339.989,147.336,329.013,147.444,324.861z"/>
			<path style="fill:#00AB92;" d="M148.487,335.671c-2.213,1.569-7.897,8.611-7.168,12.603
				C144.74,346.157,148.598,338.473,148.487,335.671z"/>
			<path style="fill:#00AB92;" d="M79.61,325.223c-0.096-3.152,6.116-9.737,11.28-9.998C89.263,320.084,83.154,324.96,79.61,325.223
				z"/>
			<path style="fill:#008EAE;" d="M84.225,329.473c-0.017-3.619,7.306-10.991,13.238-11.138
				C95.452,323.863,88.298,329.276,84.225,329.473z"/>
			<path style="fill:#00AB92;" d="M88.748,337.409c-0.262-4.613,8.585-14.497,16.138-15.077
				C102.689,329.511,93.928,336.887,88.748,337.409z"/>
			<path style="fill:#008EAE;" d="M94.327,347.358c-0.89-5.746,8.987-19.205,18.378-20.852
				C110.828,335.768,100.752,346.074,94.327,347.358z"/>
			<path style="fill:#00AB92;" d="M98.568,358.163c1.76-6.125,12.962-24.193,22.381-25.676
				C118.909,341.715,104.868,356.235,98.568,358.163z"/>
			<path style="fill:#008EAE;" d="M112.006,359.651c1.027-5.035,8.886-20.27,16.363-22.059
				C127.315,345.138,116.949,357.701,112.006,359.651z"/>
			<path style="fill:#00AB92;" d="M120.107,358.87c1.27-3.811,8.799-14.896,14.77-15.582
				C133.35,349.046,124.126,357.822,120.107,358.87z"/>
			<path style="fill:#008EAE;" d="M129.791,357.988c1.221-2.422,7.336-9.093,11.393-8.967
				C139.601,352.718,132.579,357.68,129.791,357.988z"/>
			<path style="fill:none;stroke:#006A88;stroke-linecap:round;stroke-miterlimit:10;" d="M147.829,356.149
				c-15.423-20.376-48.315-38.557-60.162-42.474"/>
			<path style="fill:#008EAE;" d="M87.537,313.711c-2.327-2.469-12.063-2.746-16.187,0.987
				C76.287,317.153,84.643,316.208,87.537,313.711z"/>
			<path style="fill:#00AB92;" d="M87.245,313.619c0.34-3.376-5.833-10.91-11.356-11.578
				C77.271,307.379,83.462,313.071,87.245,313.619z"/>
		</g>
		<g>
			<path style="fill:#005D7B;" d="M354.228,341.974c-4.565-29.388,12.482-58.35,56.997-73.948
				C410.743,322.736,370.777,342.002,354.228,341.974z"/>
			<g>
				<path style="fill:#007696;" d="M354.228,341.974c1.707-6.947,20.948-32.046,49.028-64.772
					C378.062,313.76,360.656,337.912,354.228,341.974z"/>
				<g>
					<path style="fill:#007696;" d="M361.446,333.185c3.013-0.901,6.946,0.706,7.854,3.539c-0.265-5.094-6.552-4.7-6.552-4.7
						L361.446,333.185z"/>
					<path style="fill:#007696;" d="M367.93,324.723c5.747,0.149,10.178,3.164,11.697,6.194c-2.17-7.869-10.201-8.258-10.201-8.258
						L367.93,324.723z"/>
					<path style="fill:#007696;" d="M376.059,313.845c5.192-0.501,10.624,2.108,13.457,6.938c-2.413-6.312-8.75-8.993-12.486-8.499
						C376.431,312.965,376.059,313.845,376.059,313.845z"/>
					<path style="fill:#007696;" d="M385.461,301.43c6.35,0.196,9.064,1.137,12.726,6.214c-1.581-5.337-8.597-8.617-11.356-8.228
						C385.783,300.425,385.461,301.43,385.461,301.43z"/>
					<path style="fill:#007696;" d="M392.765,291.032c3.337-0.041,6.925,1.33,9.078,4.048c-1.875-3.906-7.829-5.283-7.829-5.283
						L392.765,291.032z"/>
					<path style="fill:#007696;" d="M399.352,282.423c2.234,0.115,5.011,1.737,6.579,3.858c-1.093-3.056-5.994-4.715-5.994-4.715
						L399.352,282.423z"/>
				</g>
				<g>
					<path style="fill:#007696;" d="M360.38,332.494c0.058-3.145-2.546-6.501-5.518-6.615c4.978-1.113,6.287,5.048,6.287,5.048
						L360.38,332.494z"/>
					<path style="fill:#007696;" d="M366.788,323.976c-1.687-5.496-5.782-8.954-9.108-9.604c8.163-0.024,10.695,7.608,10.695,7.608
						L366.788,323.976z"/>
					<path style="fill:#007696;" d="M375.083,313.223c-0.912-5.136-4.885-9.668-10.298-11.099c6.729,0.629,11.012,6.012,11.54,9.744
						C375.831,312.628,375.083,313.223,375.083,313.223z"/>
					<path style="fill:#007696;" d="M384.516,300.832c-1.895-6.064-3.53-8.425-9.404-10.59c5.566,0.089,10.61,5.967,10.976,8.728
						C385.398,300.252,384.516,300.832,384.516,300.832z"/>
					<path style="fill:#007696;" d="M392.57,291.003c-0.857-3.225-3.141-6.313-6.337-7.657c4.266,0.757,7.192,6.122,7.192,6.122
						L392.57,291.003z"/>
					<path style="fill:#007696;" d="M399.094,282.346c-0.711-2.121-3.019-4.36-5.484-5.301c3.238,0.232,6.151,4.508,6.151,4.508
						L399.094,282.346z"/>
				</g>
			</g>
		</g>
		<g>
			<path style="fill:#008EAE;" d="M349.825,353.817c6.289-29.068,32.595-49.981,79.743-48.56
				C409.479,356.148,365.261,359.784,349.825,353.817z"/>
			<g>
				<path style="fill:#007696;" d="M349.825,353.817c4.087-5.872,31.055-22.391,69.011-42.856
					C382.199,336.039,357.283,352.333,349.825,353.817z"/>
				<g>
					<path style="fill:#007696;" d="M359.718,348.204c3.136,0.241,6.23,3.152,6.061,6.122c1.581-4.85-4.428-6.739-4.428-6.739
						L359.718,348.204z"/>
					<path style="fill:#007696;" d="M368.806,342.634c5.311,2.202,8.363,6.607,8.695,9.98c0.8-8.123-6.557-11.37-6.557-11.37
						L368.806,342.634z"/>
					<path style="fill:#007696;" d="M380.299,335.399c5.026,1.396,9.16,5.782,10.07,11.306c0.013-6.758-4.938-11.534-8.603-12.414
						C380.962,334.711,380.299,335.399,380.299,335.399z"/>
					<path style="fill:#007696;" d="M393.531,327.186c5.856,2.462,8.052,4.315,9.647,10.368c0.441-5.549-4.931-11.129-7.645-11.756
						C394.192,326.364,393.531,327.186,393.531,327.186z"/>
					<path style="fill:#007696;" d="M404.08,320.103c3.129,1.16,5.986,3.727,7.02,7.037c-0.348-4.319-5.411-7.741-5.411-7.741
						L404.08,320.103z"/>
					<path style="fill:#007696;" d="M413.318,314.432c2.044,0.909,4.053,3.42,4.756,5.963c0.077-3.245-3.902-6.552-3.902-6.552
						L413.318,314.432z"/>
				</g>
				<g>
					<path style="fill:#007696;" d="M358.97,347.177c1.183-2.914-0.042-6.982-2.776-8.155c5.046,0.748,4.056,6.969,4.056,6.969
						L358.97,347.177z"/>
					<path style="fill:#007696;" d="M368.009,341.527c0.398-5.735-2.183-10.432-5.053-12.233c7.627,2.908,7.251,10.94,7.251,10.94
						L368.009,341.527z"/>
					<path style="fill:#007696;" d="M379.611,334.469c0.992-5.121-1.089-10.777-5.628-14.056c6.054,3.002,8.12,9.565,7.273,13.237
						C380.522,334.181,379.611,334.469,379.611,334.469z"/>
					<path style="fill:#007696;" d="M392.864,326.289c0.408-6.34-0.27-9.131-4.976-13.259c5.163,2.081,7.761,9.378,7.111,12.086
						C393.895,326.064,392.864,326.289,392.864,326.289z"/>
					<path style="fill:#007696;" d="M403.909,320.007c0.358-3.318-0.665-7.02-3.167-9.421c3.71,2.238,4.515,8.296,4.515,8.296
						L403.909,320.007z"/>
					<path style="fill:#007696;" d="M413.105,314.268c0.098-2.235-1.253-5.153-3.216-6.916c2.939,1.379,4.123,6.415,4.123,6.415
						L413.105,314.268z"/>
				</g>
			</g>
		</g>
		<g>
			<path style="fill:#008EAE;" d="M149.947,348.785c-14.286,26.085-45.448,38.665-90.251,23.912
				C93.411,329.608,136.84,338.68,149.947,348.785z"/>
			<g>
				<path style="fill:#007696;" d="M149.947,348.785c-5.586,4.469-36.135,12.649-78.341,21.491
					C113.856,356.637,142.374,348.09,149.947,348.785z"/>
				<g>
					<path style="fill:#007696;" d="M138.867,351.357c-2.939-1.122-5.078-4.792-4.072-7.591c-2.894,4.201,2.332,7.719,2.332,7.719
						L138.867,351.357z"/>
					<path style="fill:#007696;" d="M128.571,354.116c-4.467-3.62-6.142-8.71-5.502-12.038c-3.074,7.562,3.058,12.764,3.058,12.764
						L128.571,354.116z"/>
					<path style="fill:#007696;" d="M115.497,357.79c-4.422-2.766-7.14-8.145-6.444-13.701c-1.932,6.476,1.459,12.462,4.723,14.346
						C114.665,358.26,115.497,357.79,115.497,357.79z"/>
					<path style="fill:#007696;" d="M100.477,361.906c-4.915-4.024-6.495-6.424-6.306-12.681
						c-1.999,5.196,1.567,12.071,3.992,13.443C99.61,362.507,100.477,361.906,100.477,361.906z"/>
					<path style="fill:#007696;" d="M88.35,365.701c-2.671-2.001-4.681-5.273-4.732-8.74c-0.893,4.24,2.989,8.959,2.989,8.959
						L88.35,365.701z"/>
					<path style="fill:#007696;" d="M77.882,368.515c-1.701-1.452-2.915-4.43-2.866-7.068c-0.995,3.09,1.881,7.391,1.881,7.391
						L77.882,368.515z"/>
				</g>
				<g>
					<path style="fill:#007696;" d="M139.292,352.555c-1.962,2.458-1.942,6.706,0.345,8.608c-4.626-2.15-1.91-7.834-1.91-7.834
						L139.292,352.555z"/>
					<path style="fill:#007696;" d="M129.021,355.404c-2.011,5.386-0.87,10.623,1.371,13.165
						c-6.487-4.954-3.845-12.549-3.845-12.549L129.021,355.404z"/>
					<path style="fill:#007696;" d="M115.892,358.877c-2.406,4.628-2.017,10.642,1.404,15.076
						c-4.952-4.598-5.069-11.477-3.214-14.758C114.936,358.894,115.892,358.877,115.892,358.877z"/>
					<path style="fill:#007696;" d="M100.862,362.956c-2.192,5.962-2.334,8.832,1.005,14.127
						c-4.359-3.462-4.778-11.196-3.385-13.608C99.809,362.878,100.862,362.956,100.862,362.956z"/>
					<path style="fill:#007696;" d="M88.487,365.843c-1.285,3.08-1.356,6.919,0.36,9.933c-2.921-3.199-1.973-9.236-1.973-9.236
						L88.487,365.843z"/>
					<path style="fill:#007696;" d="M78.04,368.733c-0.729,2.115-0.263,5.297,1.119,7.545c-2.426-2.157-2.132-7.322-2.132-7.322
						L78.04,368.733z"/>
				</g>
			</g>
		</g>
		<g>
			<path style="fill:#FFC900;" d="M197.765,137.482c-1.85,0-7.28,0-8.951,0c0-3.048,2.004-5.518,4.475-5.518
				C195.762,131.964,197.765,134.435,197.765,137.482z"/>
			<rect x="188.821" y="137.371" style="fill:#FFC900;" width="0.387" height="4.108"/>
			<rect x="189.774" y="137.371" style="fill:#FFC900;" width="0.387" height="4.108"/>
			<rect x="190.727" y="137.371" style="fill:#FFC900;" width="0.387" height="4.108"/>
			<rect x="191.679" y="137.371" style="fill:#FFC900;" width="0.387" height="4.108"/>
			<rect x="192.632" y="137.371" style="fill:#FFC900;" width="0.387" height="4.108"/>
			<rect x="193.585" y="137.371" style="fill:#FFC900;" width="0.387" height="4.108"/>
			<rect x="194.538" y="137.371" style="fill:#FFC900;" width="0.387" height="4.108"/>
			<rect x="195.49" y="137.371" style="fill:#FFC900;" width="0.387" height="4.108"/>
			<rect x="196.443" y="137.371" style="fill:#FFC900;" width="0.387" height="4.108"/>
			<rect x="197.396" y="137.371" style="fill:#FFC900;" width="0.387" height="4.108"/>
		</g>
		<path style="fill:#FFC900;" d="M194.501,131.41c0,0.664-0.539,1.203-1.203,1.203c-0.664,0-1.203-0.539-1.203-1.203
			c0-0.664,0.539-1.203,1.203-1.203C193.963,130.207,194.501,130.745,194.501,131.41z"/>
		<path style="fill:#FFC900;" d="M193.914,129.772c0,0.34-0.276,0.615-0.615,0.615c-0.34,0-0.615-0.276-0.615-0.615
			c0-0.34,0.275-0.616,0.615-0.616C193.638,129.156,193.914,129.432,193.914,129.772z"/>
		
			<line style="fill:none;stroke:#FFC900;stroke-width:0.5;stroke-miterlimit:10;" x1="193.313" y1="129.403" x2="193.313" y2="119.372"/>
		<polygon style="fill:#00446B;" points="241.898,137.33 186.001,116.93 241.898,96.53 297.795,116.93 		"/>
		<g>
			<path id="XMLID_99_" style="fill:#293036;" d="M370.91,384.649l-250.408-0.196c-1.827-0.001-3.308-1.484-3.306-3.312
				l0.126-160.545c0.005-5.593,4.542-10.124,10.136-10.119l236.771,0.186c5.593,0.005,10.124,4.542,10.119,10.135l-0.126,160.545
				C374.22,383.17,372.737,384.65,370.91,384.649"/>
			<polyline id="XMLID_98_" style="fill:#00B6EC;" points="363.233,374.595 125.527,374.408 125.649,218.586 363.356,218.773 
				363.233,374.595 			"/>
			<path id="XMLID_97_" style="fill:#939597;" d="M428.083,441.291l-364.585-0.286c-4.401-0.004-7.966-3.574-7.963-7.975l0-0.284
				l380.522,0.298l0,0.284C436.054,437.729,432.484,441.294,428.083,441.291z"/>
			<path id="XMLID_96_" style="fill:#D0D3D4;" d="M427.261,435.164l-362.968-0.285c-6.593-0.005-10.253-1.327-8.174-2.954
				l57.752-45.181c2.079-1.626,7.319-2.942,11.704-2.938l241.404,0.189c4.385,0.004,9.599,1.327,11.646,2.957l56.868,45.271
				C437.54,433.853,433.854,435.169,427.261,435.164z"/>
			<polygon id="XMLID_95_" style="fill:#BCBEC0;" points="315.514,431.715 176.071,431.605 185.489,413.518 306.484,413.613 			"/>
			<path id="XMLID_94_" style="fill:#939597;" d="M141.099,390.407l-11.135-0.009c-0.654,0-0.982-0.186-0.732-0.413l4.255-3.878
				c0.25-0.228,0.96-0.412,1.585-0.412l10.65,0.008c0.626,0.001,0.953,0.186,0.732,0.413l-3.77,3.879
				C142.463,390.223,141.753,390.408,141.099,390.407z"/>
			<path id="XMLID_93_" style="fill:#939597;" d="M156.876,390.419l-11.135-0.009c-0.654,0-1.009-0.186-0.792-0.414l3.688-3.879
				c0.217-0.228,0.9-0.412,1.525-0.412l10.65,0.008c0.626,0.001,0.98,0.186,0.792,0.414l-3.203,3.879
				C158.213,390.236,157.53,390.42,156.876,390.419z"/>
			<path id="XMLID_92_" style="fill:#939597;" d="M172.652,390.432l-11.135-0.009c-0.654,0-1.036-0.186-0.852-0.414l3.121-3.879
				c0.184-0.228,0.839-0.412,1.465-0.412l10.65,0.008c0.626,0.001,1.007,0.186,0.852,0.414l-2.637,3.88
				C173.962,390.248,173.306,390.432,172.652,390.432z"/>
			<path id="XMLID_91_" style="fill:#939597;" d="M188.428,390.444l-11.135-0.009c-0.654-0.001-1.063-0.186-0.913-0.414l2.555-3.88
				c0.15-0.228,0.779-0.412,1.405-0.412l10.65,0.008c0.626,0.001,1.034,0.186,0.913,0.414l-2.07,3.88
				C189.711,390.26,189.082,390.445,188.428,390.444z"/>
			<path id="XMLID_90_" style="fill:#939597;" d="M204.205,390.457l-11.135-0.009c-0.654,0-1.09-0.186-0.973-0.414l1.989-3.88
				c0.117-0.228,0.719-0.412,1.344-0.412l10.65,0.008c0.626,0,1.061,0.186,0.973,0.414l-1.504,3.88
				C205.461,390.273,204.859,390.457,204.205,390.457z"/>
			<path id="XMLID_89_" style="fill:#939597;" d="M220.046,390.469l-11.135-0.009c-0.654,0-1.117-0.186-1.033-0.414l1.42-3.881
				c0.084-0.228,0.658-0.412,1.284-0.412l10.65,0.008c0.626,0.001,1.088,0.186,1.033,0.414l-0.935,3.881
				C221.275,390.285,220.7,390.47,220.046,390.469z"/>
			<path id="XMLID_88_" style="fill:#939597;" d="M235.822,390.481l-11.135-0.009c-0.654,0-1.144-0.186-1.094-0.414l0.853-3.881
				c0.05-0.228,0.598-0.412,1.224-0.412l10.65,0.008c0.626,0.001,1.115,0.186,1.094,0.414l-0.368,3.882
				C237.024,390.297,236.476,390.482,235.822,390.481z"/>
			<path id="XMLID_87_" style="fill:#939597;" d="M251.598,390.494l-11.135-0.009c-0.654-0.001-1.171-0.186-1.154-0.414l0.287-3.882
				c0.017-0.228,0.538-0.412,1.163-0.412l10.65,0.008c0.626,0,1.142,0.186,1.154,0.414l0.198,3.882
				C252.773,390.31,252.252,390.494,251.598,390.494z"/>
			<path id="XMLID_86_" style="fill:#939597;" d="M267.375,390.506l-11.135-0.009c-0.654-0.001-1.198-0.186-1.214-0.414l-0.28-3.882
				c-0.016-0.228,0.477-0.413,1.103-0.412l10.65,0.008c0.626,0,1.169,0.186,1.214,0.414l0.764,3.882
				C268.523,390.322,268.029,390.507,267.375,390.506z"/>
			<path id="XMLID_85_" style="fill:#939597;" d="M283.151,390.518l-11.135-0.009c-0.654-0.001-1.225-0.186-1.275-0.414
				l-0.846-3.882c-0.05-0.228,0.417-0.413,1.043-0.412l10.65,0.008c0.626,0,1.196,0.186,1.274,0.414l1.331,3.883
				C284.272,390.335,283.805,390.519,283.151,390.518z"/>
			<path id="XMLID_84_" style="fill:#939597;" d="M299.685,390.531l-11.135-0.009c-0.654,0-1.253-0.186-1.338-0.414l-1.44-3.883
				c-0.085-0.228,0.354-0.413,0.98-0.412l10.65,0.008c0.626,0.001,1.225,0.186,1.338,0.414l1.925,3.883
				C300.777,390.348,300.339,390.532,299.685,390.531z"/>
			<path id="XMLID_83_" style="fill:#939597;" d="M315.461,390.544l-11.135-0.009c-0.654-0.001-1.28-0.186-1.398-0.414l-2.006-3.883
				c-0.118-0.228,0.294-0.413,0.92-0.412l10.65,0.008c0.626,0,1.252,0.186,1.398,0.414l2.491,3.884
				C316.527,390.36,316.115,390.544,315.461,390.544z"/>
			<path id="XMLID_82_" style="fill:#939597;" d="M331.237,390.556l-11.135-0.009c-0.654,0-1.307-0.186-1.458-0.414l-2.573-3.884
				c-0.151-0.228,0.233-0.413,0.859-0.412l10.65,0.008c0.626,0.001,1.279,0.186,1.458,0.414l3.058,3.884
				C332.276,390.372,331.891,390.557,331.237,390.556z"/>
			<path id="XMLID_81_" style="fill:#939597;" d="M347.014,390.569l-11.135-0.009c-0.654-0.001-1.334-0.186-1.518-0.414
				l-3.139-3.884c-0.184-0.228,0.173-0.413,0.799-0.412l10.65,0.008c0.626,0,1.305,0.186,1.518,0.414l3.624,3.885
				C348.025,390.384,347.668,390.569,347.014,390.569z"/>
			<path id="XMLID_80_" style="fill:#939597;" d="M362.79,390.581l-11.135-0.009c-0.654,0-1.361-0.186-1.579-0.414l-3.706-3.885
				c-0.218-0.228,0.113-0.413,0.739-0.412l10.65,0.008c0.626,0,1.332,0.186,1.579,0.414l4.19,3.885
				C363.775,390.397,363.444,390.582,362.79,390.581z"/>
			<path id="XMLID_79_" style="fill:#939597;" d="M142.716,395.795l-18.597-0.015c-0.687,0-1.041-0.186-0.791-0.414l4.255-3.878
				c0.25-0.228,0.986-0.412,1.644-0.411l17.825,0.014c0.658,0.001,1.024,0.186,0.816,0.414l-3.533,3.879
				C144.128,395.611,143.403,395.795,142.716,395.795z"/>
			<path id="XMLID_78_" style="fill:#939597;" d="M159.119,395.808l-11.69-0.009c-0.687-0.001-1.079-0.186-0.876-0.414l3.457-3.879
				c0.203-0.228,0.901-0.412,1.56-0.412l11.205,0.009c0.658,0,1.05,0.186,0.876,0.414l-2.972,3.879
				C160.505,395.624,159.806,395.808,159.119,395.808z"/>
			<path id="XMLID_77_" style="fill:#939597;" d="M175.682,395.821l-11.69-0.009c-0.687,0-1.106-0.186-0.936-0.414l2.891-3.879
				c0.17-0.228,0.841-0.412,1.499-0.412l11.205,0.009c0.658,0,1.077,0.186,0.936,0.414l-2.406,3.88
				C177.04,395.637,176.368,395.821,175.682,395.821z"/>
			<path id="XMLID_76_" style="fill:#939597;" d="M192.244,395.834l-11.69-0.009c-0.687-0.001-1.133-0.186-0.996-0.414l2.324-3.88
				c0.136-0.228,0.781-0.412,1.439-0.412l11.205,0.009c0.658,0,1.104,0.186,0.996,0.413l-1.839,3.88
				C193.575,395.65,192.931,395.834,192.244,395.834z"/>
			<path id="XMLID_75_" style="fill:#939597;" d="M208.875,395.847l-11.69-0.009c-0.687-0.001-1.16-0.186-1.057-0.414l1.755-3.88
				c0.103-0.228,0.72-0.412,1.379-0.412l11.205,0.009c0.658,0.001,1.131,0.186,1.057,0.414l-1.271,3.881
				C210.179,395.663,209.561,395.847,208.875,395.847z"/>
			<path id="XMLID_74_" style="fill:#939597;" d="M225.437,395.86l-11.69-0.009c-0.687,0-1.187-0.186-1.117-0.414l1.189-3.881
				c0.07-0.228,0.66-0.412,1.318-0.412l11.205,0.009c0.658,0,1.158,0.186,1.117,0.414l-0.704,3.881
				C226.714,395.676,226.124,395.86,225.437,395.86z"/>
			<path id="XMLID_73_" style="fill:#939597;" d="M241.999,395.873l-11.69-0.009c-0.687,0-1.214-0.186-1.177-0.414l0.623-3.881
				c0.036-0.228,0.6-0.412,1.258-0.412l11.205,0.009c0.658,0,1.185,0.186,1.177,0.414l-0.138,3.881
				C243.249,395.689,242.686,395.873,241.999,395.873z"/>
			<path id="XMLID_72_" style="fill:#939597;" d="M258.562,395.886l-11.69-0.009c-0.687-0.001-1.241-0.186-1.237-0.414l0.056-3.882
				c0.003-0.228,0.54-0.413,1.198-0.412l11.205,0.009c0.658,0.001,1.212,0.186,1.237,0.414l0.429,3.882
				C259.785,395.702,259.249,395.886,258.562,395.886z"/>
			<path id="XMLID_71_" style="fill:#939597;" d="M275.124,395.899l-11.69-0.009c-0.687,0-1.268-0.186-1.298-0.414l-0.51-3.882
				c-0.03-0.228,0.479-0.413,1.138-0.412l11.205,0.009c0.658,0,1.239,0.186,1.298,0.414l0.995,3.882
				C276.32,395.715,275.811,395.899,275.124,395.899z"/>
			<path id="XMLID_70_" style="fill:#939597;" d="M292.482,395.912l-11.69-0.009c-0.687-0.001-1.296-0.186-1.361-0.414l-1.104-3.883
				c-0.065-0.228,0.416-0.413,1.074-0.412l11.205,0.009c0.658,0,1.267,0.186,1.361,0.414l1.589,3.883
				C293.65,395.728,293.168,395.913,292.482,395.912z"/>
			<path id="XMLID_69_" style="fill:#939597;" d="M309.044,395.925l-11.69-0.009c-0.687-0.001-1.323-0.186-1.421-0.414l-1.671-3.883
				c-0.098-0.228,0.356-0.412,1.014-0.412l11.205,0.009c0.658,0.001,1.294,0.186,1.421,0.414l2.155,3.884
				C310.185,395.741,309.731,395.926,309.044,395.925z"/>
			<path id="XMLID_68_" style="fill:#939597;" d="M325.606,395.938l-11.69-0.009c-0.687-0.001-1.35-0.186-1.481-0.414l-2.237-3.884
				c-0.131-0.228,0.296-0.413,0.954-0.412l11.205,0.009c0.658,0,1.322,0.186,1.481,0.414l2.722,3.884
				C326.72,395.754,326.293,395.939,325.606,395.938z"/>
			<path id="XMLID_67_" style="fill:#939597;" d="M342.169,395.951l-11.69-0.009c-0.687-0.001-1.377-0.186-1.542-0.414l-2.803-3.884
				c-0.165-0.228,0.235-0.413,0.894-0.412l11.205,0.009c0.658,0.001,1.349,0.186,1.542,0.414l3.288,3.884
				C343.256,395.767,342.855,395.952,342.169,395.951z"/>
			<path id="XMLID_66_" style="fill:#939597;" d="M368.546,395.972l-21.505-0.017c-0.687-0.001-1.404-0.186-1.602-0.414l-3.37-3.884
				c-0.198-0.228,0.175-0.413,0.833-0.412l20.613,0.016c0.658,0.001,1.391,0.186,1.638,0.414l4.191,3.885
				C369.59,395.788,369.233,395.973,368.546,395.972z"/>
			<path id="XMLID_65_" style="fill:#939597;" d="M127.663,412.124l-21.274-0.017c-0.786-0.001-1.22-0.186-0.97-0.414l4.255-3.878
				c0.25-0.228,1.066-0.412,1.823-0.411l20.503,0.016c0.757,0.001,1.203,0.186,0.995,0.414l-3.533,3.879
				C129.254,411.94,128.449,412.124,127.663,412.124z"/>
			<path id="XMLID_64_" style="fill:#939597;" d="M146.428,412.138l-13.373-0.011c-0.786-0.001-1.258-0.186-1.055-0.414l3.457-3.879
				c0.203-0.228,0.982-0.412,1.739-0.411l12.888,0.01c0.757,0.001,1.23,0.186,1.055,0.414l-2.972,3.879
				C147.992,411.955,147.214,412.139,146.428,412.138z"/>
			<path id="XMLID_63_" style="fill:#939597;" d="M165.375,412.153l-13.373-0.01c-0.786-0.001-1.285-0.186-1.115-0.414l2.891-3.879
				c0.17-0.228,0.921-0.412,1.678-0.412l12.888,0.01c0.757,0.001,1.256,0.186,1.115,0.414l-2.406,3.88
				C166.912,411.969,166.16,412.154,165.375,412.153z"/>
			<path id="XMLID_62_" style="fill:#939597;" d="M184.322,412.168l-13.373-0.01c-0.786-0.001-1.312-0.186-1.175-0.414l2.324-3.88
				c0.137-0.228,0.861-0.412,1.618-0.412l12.888,0.01c0.757,0,1.283,0.186,1.175,0.414l-1.839,3.88
				C185.832,411.984,185.107,412.169,184.322,412.168z"/>
			<path id="XMLID_61_" style="fill:#939597;" d="M290.129,412.251l-99.843-0.078c-0.786-0.001-1.339-0.186-1.237-0.414l1.746-3.88
				c0.103-0.228,0.799-0.412,1.557-0.412l96.223,0.076c0.757,0.001,1.434,0.186,1.512,0.414l1.324,3.883
				C291.488,412.067,290.914,412.252,290.129,412.251z"/>
			<path id="XMLID_60_" style="fill:#939597;" d="M309.102,412.266l-13.373-0.011c-0.786-0.001-1.49-0.186-1.572-0.414l-1.406-3.883
				c-0.083-0.228,0.464-0.413,1.221-0.412l12.888,0.01c0.757,0.001,1.461,0.186,1.572,0.414l1.891,3.883
				C310.434,412.082,309.887,412.267,309.102,412.266z"/>
			<path id="XMLID_59_" style="fill:#939597;" d="M328.049,412.281l-13.373-0.01c-0.786-0.001-1.516-0.186-1.632-0.414l-1.973-3.883
				c-0.116-0.228,0.404-0.412,1.161-0.412l12.888,0.01c0.757,0.001,1.488,0.186,1.632,0.414l2.458,3.884
				C329.354,412.097,328.834,412.281,328.049,412.281z"/>
			<path id="XMLID_58_" style="fill:#939597;" d="M346.996,412.296l-13.373-0.01c-0.786-0.001-1.543-0.186-1.693-0.414l-2.539-3.884
				c-0.149-0.228,0.344-0.413,1.101-0.412l12.888,0.01c0.757,0.001,1.515,0.186,1.693,0.414l3.024,3.884
				C348.274,412.112,347.781,412.296,346.996,412.296z"/>
			<path id="XMLID_57_" style="fill:#939597;" d="M365.943,412.31l-13.373-0.01c-0.786-0.001-1.57-0.186-1.753-0.414l-3.106-3.884
				c-0.182-0.228,0.283-0.413,1.041-0.412l12.888,0.01c0.757,0.001,1.542,0.186,1.753,0.414l3.591,3.885
				C367.194,412.126,366.728,412.311,365.943,412.31z"/>
			<path id="XMLID_56_" style="fill:#939597;" d="M384.942,412.325l-13.373-0.011c-0.786-0.001-1.597-0.186-1.813-0.414
				l-3.674-3.885c-0.216-0.228,0.223-0.413,0.98-0.412l12.888,0.01c0.757,0.001,1.569,0.186,1.813,0.414l4.159,3.885
				C386.166,412.141,385.727,412.326,384.942,412.325z"/>
			<path id="XMLID_55_" style="fill:#939597;" d="M147.511,401.185l-29.236-0.023c-0.719-0.001-1.1-0.186-0.85-0.414l4.255-3.878
				c0.25-0.228,1.012-0.412,1.703-0.412l28.079,0.022c0.691,0.001,1.098,0.186,0.909,0.414l-3.215,3.879
				C148.966,401.001,148.23,401.186,147.511,401.185z"/>
			<path id="XMLID_54_" style="fill:#939597;" d="M165.002,401.199l-12.245-0.01c-0.719-0.001-1.153-0.186-0.97-0.414l3.128-3.879
				c0.184-0.228,0.893-0.412,1.584-0.412l11.76,0.009c0.691,0,1.125,0.186,0.97,0.414l-2.644,3.88
				C166.431,401.015,165.722,401.199,165.002,401.199z"/>
			<path id="XMLID_53_" style="fill:#939597;" d="M182.35,401.212l-12.244-0.01c-0.719-0.001-1.181-0.186-1.03-0.414l2.562-3.88
				c0.151-0.228,0.833-0.412,1.523-0.412l11.76,0.009c0.691,0.001,1.152,0.186,1.03,0.414l-2.077,3.88
				C183.752,401.029,183.07,401.213,182.35,401.212z"/>
			<path id="XMLID_52_" style="fill:#939597;" d="M199.77,401.226l-12.245-0.01c-0.719,0-1.208-0.186-1.09-0.414l1.993-3.88
				c0.117-0.228,0.772-0.412,1.463-0.412l11.76,0.009c0.691,0.001,1.179,0.186,1.09,0.414l-1.508,3.881
				C201.145,401.042,200.49,401.227,199.77,401.226z"/>
			<path id="XMLID_51_" style="fill:#939597;" d="M217.119,401.24l-12.245-0.01c-0.719-0.001-1.235-0.186-1.151-0.414l1.427-3.881
				c0.084-0.228,0.712-0.412,1.403-0.412l11.76,0.009c0.691,0.001,1.206,0.186,1.151,0.414l-0.942,3.881
				C218.466,401.056,217.838,401.24,217.119,401.24z"/>
			<path id="XMLID_50_" style="fill:#939597;" d="M234.467,401.253l-12.245-0.01c-0.719-0.001-1.262-0.186-1.211-0.414l0.86-3.881
				c0.051-0.228,0.652-0.412,1.342-0.412l11.76,0.009c0.691,0.001,1.233,0.186,1.211,0.414l-0.375,3.881
				C235.788,401.069,235.187,401.254,234.467,401.253z"/>
			<path id="XMLID_49_" style="fill:#939597;" d="M251.816,401.267l-12.245-0.01c-0.719,0-1.288-0.186-1.271-0.414l0.294-3.882
				c0.017-0.228,0.591-0.412,1.282-0.412l11.76,0.009c0.691,0.001,1.26,0.186,1.271,0.414l0.191,3.882
				C253.109,401.083,252.535,401.267,251.816,401.267z"/>
			<path id="XMLID_48_" style="fill:#939597;" d="M269.164,401.281l-12.245-0.01c-0.719-0.001-1.315-0.186-1.331-0.414l-0.273-3.882
				c-0.016-0.228,0.531-0.413,1.222-0.412l11.76,0.009c0.691,0.001,1.287,0.186,1.332,0.414l0.758,3.882
				C270.43,401.097,269.883,401.281,269.164,401.281z"/>
			<path id="XMLID_47_" style="fill:#939597;" d="M286.513,401.294l-12.245-0.01c-0.719,0-1.342-0.186-1.392-0.414l-0.839-3.882
				c-0.049-0.228,0.471-0.413,1.162-0.412l11.76,0.009c0.691,0.001,1.314,0.186,1.392,0.414l1.324,3.883
				C287.752,401.11,287.232,401.295,286.513,401.294z"/>
			<path id="XMLID_46_" style="fill:#939597;" d="M303.861,401.308l-12.245-0.01c-0.719-0.001-1.369-0.186-1.452-0.414l-1.406-3.883
				c-0.083-0.228,0.41-0.413,1.101-0.412l11.76,0.009c0.691,0,1.341,0.186,1.452,0.414l1.89,3.883
				C305.073,401.124,304.58,401.308,303.861,401.308z"/>
			<path id="XMLID_45_" style="fill:#939597;" d="M321.209,401.321l-12.245-0.009c-0.719-0.001-1.396-0.186-1.512-0.414
				l-1.972-3.883c-0.116-0.228,0.35-0.413,1.041-0.412l11.76,0.009c0.691,0,1.368,0.186,1.512,0.414l2.457,3.884
				C322.395,401.137,321.929,401.322,321.209,401.321z"/>
			<path id="XMLID_44_" style="fill:#939597;" d="M338.558,401.335l-12.245-0.01c-0.719-0.001-1.423-0.186-1.573-0.414l-2.539-3.884
				c-0.149-0.228,0.29-0.413,0.981-0.412l11.76,0.009c0.691,0.001,1.395,0.186,1.572,0.414l3.023,3.884
				C339.716,401.151,339.277,401.336,338.558,401.335z"/>
			<path id="XMLID_30_" style="fill:#939597;" d="M355.906,401.349l-12.245-0.01c-0.719-0.001-1.45-0.186-1.633-0.414l-3.105-3.884
				c-0.182-0.228,0.23-0.413,0.921-0.412l11.76,0.009c0.691,0.001,1.422,0.186,1.633,0.414l3.59,3.884
				C357.038,401.165,356.626,401.349,355.906,401.349z"/>
			<path id="XMLID_29_" style="fill:#939597;" d="M373.326,401.362l-12.245-0.01c-0.719-0.001-1.477-0.186-1.693-0.414l-3.674-3.885
				c-0.216-0.228,0.169-0.413,0.86-0.412l11.76,0.009c0.691,0.001,1.449,0.186,1.693,0.414l4.159,3.885
				C374.43,401.178,374.045,401.363,373.326,401.362z"/>
			<path id="XMLID_28_" style="fill:#939597;" d="M153.434,406.682l-41.118-0.032c-0.753-0.001-1.16-0.186-0.91-0.414l4.255-3.878
				c0.25-0.228,1.04-0.412,1.764-0.411l39.562,0.031c0.724,0,1.174,0.186,1.004,0.414l-2.886,3.879
				C154.934,406.498,154.186,406.682,153.434,406.682z"/>
			<path id="XMLID_27_" style="fill:#939597;" d="M171.559,406.696l-12.81-0.01c-0.753-0.001-1.229-0.186-1.064-0.414l2.805-3.879
				c0.165-0.228,0.885-0.412,1.609-0.412l12.326,0.01c0.724,0,1.201,0.186,1.064,0.414l-2.32,3.88
				C173.032,406.512,172.311,406.697,171.559,406.696z"/>
			<path id="XMLID_26_" style="fill:#939597;" d="M189.783,406.71l-12.81-0.01c-0.753,0-1.256-0.186-1.125-0.414l2.236-3.88
				c0.131-0.228,0.825-0.412,1.549-0.412l12.326,0.009c0.724,0.001,1.228,0.186,1.125,0.414l-1.752,3.88
				C191.229,406.527,190.536,406.711,189.783,406.71z"/>
			<path id="XMLID_25_" style="fill:#939597;" d="M207.933,406.725l-12.81-0.01c-0.753-0.001-1.283-0.186-1.185-0.414l1.67-3.88
				c0.098-0.228,0.764-0.413,1.489-0.412l12.326,0.01c0.724,0.001,1.255,0.186,1.185,0.414l-1.185,3.881
				C209.352,406.541,208.686,406.725,207.933,406.725z"/>
			<path id="XMLID_24_" style="fill:#939597;" d="M226.083,406.739l-12.81-0.01c-0.753-0.001-1.31-0.186-1.245-0.414l1.104-3.881
				c0.065-0.228,0.704-0.412,1.428-0.412l12.326,0.01c0.724,0,1.282,0.186,1.245,0.414l-0.619,3.881
				C227.475,406.555,226.836,406.739,226.083,406.739z"/>
			<path id="XMLID_23_" style="fill:#939597;" d="M244.233,406.753l-12.811-0.01c-0.753-0.001-1.337-0.186-1.305-0.414l0.537-3.881
				c0.032-0.228,0.644-0.412,1.368-0.412l12.326,0.01c0.724,0.001,1.309,0.186,1.306,0.414l-0.052,3.882
				C245.598,406.569,244.986,406.754,244.233,406.753z"/>
			<path id="XMLID_22_" style="fill:#939597;" d="M262.383,406.767l-12.81-0.01c-0.753,0-1.364-0.186-1.366-0.414l-0.029-3.882
				c-0.002-0.228,0.584-0.413,1.308-0.412l12.326,0.01c0.724,0.001,1.335,0.186,1.366,0.414l0.514,3.882
				C263.721,406.583,263.136,406.768,262.383,406.767z"/>
			<path id="XMLID_21_" style="fill:#939597;" d="M280.533,406.782l-12.811-0.01c-0.752,0-1.391-0.186-1.426-0.414l-0.596-3.882
				c-0.035-0.228,0.524-0.413,1.248-0.412l12.326,0.01c0.724,0.001,1.363,0.186,1.426,0.414l1.081,3.883
				C281.844,406.598,281.285,406.782,280.533,406.782z"/>
			<path id="XMLID_20_" style="fill:#939597;" d="M298.683,406.796l-12.811-0.01c-0.753-0.001-1.418-0.186-1.486-0.414l-1.162-3.883
				c-0.068-0.228,0.463-0.413,1.187-0.412l12.326,0.01c0.724,0.001,1.389,0.186,1.486,0.414l1.647,3.883
				C299.967,406.612,299.435,406.796,298.683,406.796z"/>
			<path id="XMLID_19_" style="fill:#939597;" d="M316.833,406.81l-12.81-0.01c-0.753-0.001-1.445-0.186-1.547-0.414l-1.729-3.883
				c-0.102-0.228,0.403-0.413,1.127-0.412l12.326,0.01c0.724,0.001,1.417,0.186,1.547,0.414l2.214,3.883
				C318.09,406.626,317.585,406.811,316.833,406.81z"/>
			<path id="XMLID_18_" style="fill:#939597;" d="M334.983,406.824l-12.81-0.01c-0.753,0-1.472-0.186-1.607-0.414l-2.295-3.883
				c-0.135-0.228,0.343-0.413,1.067-0.412l12.325,0.01c0.724,0.001,1.444,0.186,1.607,0.414l2.78,3.884
				C336.213,406.64,335.735,406.825,334.983,406.824z"/>
			<path id="XMLID_17_" style="fill:#939597;" d="M353.132,406.839l-12.81-0.01c-0.753-0.001-1.499-0.186-1.667-0.414l-2.862-3.884
				c-0.168-0.228,0.283-0.413,1.007-0.412l12.325,0.01c0.724,0.001,1.47,0.186,1.667,0.414l3.346,3.884
				C354.336,406.655,353.885,406.839,353.132,406.839z"/>
			<path id="XMLID_16_" style="fill:#939597;" d="M379.15,406.859l-20.603-0.016c-0.753-0.001-1.526-0.186-1.728-0.414l-3.431-3.884
				c-0.201-0.228,0.222-0.413,0.946-0.412l19.823,0.016c0.724,0.001,1.509,0.186,1.754,0.414l4.159,3.885
				C380.314,406.675,379.902,406.859,379.15,406.859z"/>
			<path id="XMLID_15_" style="fill:#F1F2F2;" d="M435.709,432.439c-0.976,0.872-4.065,1.457-8.458,1.454l-362.968-0.285
				c-4.376-0.003-7.446-0.589-8.418-1.457c-1.474,1.521,2.133,2.723,8.417,2.728l362.968,0.285
				C433.547,435.169,437.178,433.967,435.709,432.439z"/>
		</g>
		<path style="fill:#004D79;" d="M208.488,229.276c22.623,2.155,61.191,7.11,72.067,12.074
			c1.089,23.606,1.867,133.125,1.867,133.125h-70.53C211.892,374.475,209.022,253.437,208.488,229.276z"/>
		<path style="fill:#003B58;" d="M246.315,299.345c10.22-19.139,21.396-46.242,25.384-60.737
			c-15.13-3.719-35.739-6.394-51.668-8.134C222.448,239.971,233.205,274.897,246.315,299.345z"/>
		<path style="fill:#E6BEA6;" d="M246.195,291.579c8.029-14.261,20.351-48.501,22.748-53.674
			c-11.903-2.67-31.039-5.568-45.716-7.074C225.288,235.748,233.763,267.553,246.195,291.579z"/>
		<g>
			<path style="fill:#E6BEA6;" d="M245.579,242.563c-8.332,0-11.818-6.809-11.818-12.264v-17.727h23.636v23.92
				C257.397,241.542,253.911,242.563,245.579,242.563z"/>
		</g>
		<path style="fill:#E5AE8A;" d="M257.397,228.151v-15.578h-23.636v15.519C237.397,229.279,246.867,231.595,257.397,228.151z"/>
		<g>
			<g>
				<path style="fill:#E6BEA6;" d="M222.571,191.086c2.088,5.409,2.046,9.574-1.487,11.141c-3.529,1.568-11.161-0.496-13.248-5.906
					c-2.091-5.415-0.919-11.07,2.614-12.637C213.98,182.118,220.485,185.674,222.571,191.086z"/>
				<path style="fill:#E6BEA6;" d="M213.85,197.508c2.838,18.526,16.045,30.963,34.681,29.318
					c16.954-1.497,28.677-25.193,29.154-46.809c0.476-21.617-11.107-38.717-31.577-38.4
					C214.757,142.102,207.871,158.466,213.85,197.508z"/>
				<path style="fill:#E6BEA6;" d="M267.689,189.361c-2.156,5.386-2.165,9.548,1.349,11.16c3.508,1.61,11.165-0.357,13.32-5.743
					c2.158-5.389,1.055-11.055-2.456-12.667C276.392,180.5,269.842,183.976,267.689,189.361z"/>
				
					<linearGradient id="SVGID_1_" gradientUnits="userSpaceOnUse" x1="456.7404" y1="133.75" x2="448.7885" y2="138.693" gradientTransform="matrix(0.9679 0.2513 -0.2513 0.9679 -158.1968 -54.4719)">
					<stop  offset="0" style="stop-color:#D18178"/>
					<stop  offset="1" style="stop-color:#F6B9AD;stop-opacity:0"/>
				</linearGradient>
				<path style="fill:url(#SVGID_1_);" d="M240.539,187.405c4.966-0.993,9.15-0.178,10.081,3.506
					c0.931,3.683-4.093,5.931-8.216,6.415C238.281,197.81,236.675,188.178,240.539,187.405z"/>
				<g>
					<path style="fill:#A56052;" d="M238.355,188.1c1.883-0.778,3.932-1.263,6.031-1.223c2.06,0.046,4.331,0.515,5.923,2.247
						c0.765,0.868,1.107,2.229,0.716,3.348c-0.359,1.122-1.104,1.986-1.928,2.65c-1.656,1.35-3.622,2.088-5.583,2.618
						c1.806-0.933,3.59-1.935,5-3.271c0.685-0.673,1.283-1.444,1.489-2.288c0.248-0.831,0.019-1.679-0.552-2.334
						c-0.555-0.674-1.4-1.143-2.283-1.478c-0.89-0.345-1.856-0.517-2.832-0.622C242.377,187.567,240.362,187.737,238.355,188.1z"/>
				</g>
				<g>
					
						<linearGradient id="SVGID_00000086667891221208683360000004333952210095502243_" gradientUnits="userSpaceOnUse" x1="434.3345" y1="123.8834" x2="437.634" y2="135.078" gradientTransform="matrix(0.9679 0.2513 -0.2513 0.9679 -158.1968 -54.4719)">
						<stop  offset="0" style="stop-color:#D89A68"/>
						<stop  offset="1" style="stop-color:#D89A68;stop-opacity:0"/>
					</linearGradient>
					<path style="fill:url(#SVGID_00000086667891221208683360000004333952210095502243_);" d="M238.374,173.976
						c0.455,3.406,2.365,13.398-7.217,14.197c-9.582,0.799-7.305-10.784-7.305-10.784S233.997,174.422,238.374,173.976z"/>
					<path style="fill:#64361A;" d="M235.194,187.182c-0.181,0.699-0.895,1.119-1.594,0.937c-0.699-0.182-1.119-0.896-0.937-1.594
						c0.182-0.699,0.895-1.119,1.594-0.937C234.956,185.769,235.376,186.483,235.194,187.182z"/>
					<path style="fill:#023B44;" d="M236.308,173.365c-10.986,0.764-17.013,5.131-10.031,5.076
						C233.258,178.385,243.553,172.861,236.308,173.365z"/>
				</g>
				<g>
					
						<linearGradient id="SVGID_00000013907919046372215170000004663311890588042630_" gradientUnits="userSpaceOnUse" x1="615.9551" y1="76.7285" x2="619.2546" y2="87.9231" gradientTransform="matrix(-0.9679 0.2513 0.2513 0.9679 833.3581 -54.4719)">
						<stop  offset="0" style="stop-color:#D89A68"/>
						<stop  offset="1" style="stop-color:#D89A68;stop-opacity:0"/>
					</linearGradient>
					<path style="fill:url(#SVGID_00000013907919046372215170000004663311890588042630_);" d="M249.147,173.976
						c-0.455,3.406-2.365,13.398,7.217,14.197c9.582,0.799,7.304-10.784,7.304-10.784S253.524,174.422,249.147,173.976z"/>
					<path style="fill:#64361A;" d="M252.326,187.182c0.182,0.699,0.895,1.119,1.594,0.937c0.699-0.182,1.119-0.896,0.937-1.594
						c-0.182-0.699-0.895-1.119-1.594-0.937C252.564,185.769,252.145,186.483,252.326,187.182z"/>
					<path style="fill:#023B44;" d="M251.213,173.365c10.986,0.764,17.013,5.131,10.031,5.076
						C254.262,178.385,243.968,172.861,251.213,173.365z"/>
				</g>
				<path style="fill:#F2A09B;" d="M225.596,190.723c0,0.738-1.913,1.335-4.273,1.335c-2.36,0-4.273-0.598-4.273-1.335
					c0-0.738,1.913-1.335,4.273-1.335C223.683,189.388,225.596,189.986,225.596,190.723z"/>
				<path style="fill:#F2A09B;" d="M270.651,190.723c0,0.738-1.913,1.335-4.273,1.335c-2.36,0-4.273-0.598-4.273-1.335
					c0-0.738,1.913-1.335,4.273-1.335C268.738,189.388,270.651,189.986,270.651,190.723z"/>
			</g>
			<g>
				<path style="fill:#46271E;" d="M234.62,205.977c-0.254,0.883-0.068,1.781,0.217,2.6c0.327,0.811,0.742,1.577,1.304,2.229
					c1.088,1.327,2.607,2.239,4.262,2.716c0.837,0.21,1.679,0.433,2.559,0.477c0.867,0.152,1.756,0.073,2.645,0.105
					c0.889-0.023,1.78-0.135,2.682-0.183c0.895-0.117,1.786-0.272,2.704-0.359c-0.85,0.332-1.727,0.596-2.601,0.899
					c-0.899,0.18-1.799,0.415-2.721,0.516c-1.845,0.213-3.752,0.13-5.594-0.383c-1.823-0.545-3.558-1.65-4.632-3.263
					c-0.566-0.781-0.915-1.692-1.135-2.61C234.179,207.799,234.121,206.777,234.62,205.977z"/>
			</g>
		</g>
		<path style="fill:#023B44;" d="M280.033,165.3c0,0,0.981,7.889,0.381,11.908c-0.599,4.019-3.94,19.113-3.94,19.113
			s2.281-23.007-0.016-28.904c0.766,4.365,0.536,10.721-3.523,17.536c0.689-14.55-5.896-21.671-5.896-21.671
			s2.527,7.734,1.63,10.414c-2.766-7.416-13.827-17.473-29.54-9.679c11.816,0,8.799,6.662,8.799,6.662s0.754-4.022-7.542-3.268
			c-8.296,0.754-20.992,5.028-25.84-1.884c0,0-1.285,3.982-1.653,12.23c-0.367,8.247,0.613,18.585,0.613,18.585
			c-6.575-7.775-7.504-15.462-8.076-27.366c-0.801,7.097-4.808,5.151-4.808,5.151s4.006-0.916,3.091-7.555
			c-0.916-6.639,1.374-15.453,7.553-18.442c0,0,1.7-14.211,13.42-18.497c11.719-4.286,30.244,0.585,34.184-0.438
			c4.18-1.085,4.661-2.933,4.661-2.933s0.399,2.294-2.11,3.915c-2.509,1.621-4.16,1.443-4.16,1.443s8.681,1.57,14.146,6.101
			c7.739,6.416,10.487,15.802,10.601,21.984c0.115,6.181,1.374,9.844,1.374,9.844S280.919,169.523,280.033,165.3z"/>
		<path style="fill:#023B44;" d="M235.434,164.372c1.165,1.106,18.694-2.097,23.644,2.504c-2.562-3.552-7.687-6.406-14.151-6.406
			C238.462,160.47,235.434,164.372,235.434,164.372z"/>
		<path style="fill:#004D79;" d="M268.632,138.803c-17.204-2.694-34.622-2.723-52.263,0v-23.91c17.64-4.244,35.061-4.238,52.263,0
			V138.803z"/>
		<polygon style="fill:#004D79;" points="297.795,115.099 241.898,94.699 241.898,96.53 297.795,116.93 		"/>
		<polygon style="fill:#00446B;" points="186.001,115.099 241.898,94.699 241.898,96.53 186.001,116.93 		"/>
		<path style="fill:#E6BEA6;" d="M159.176,130.271c2.743,20.362,6.541,40.407,8.757,57.076c1.401,10.542-17.362,18.961-19.831,2.461
			c-2.469-16.5-4.349-48.049-4.552-55.166C143.345,127.526,158.018,121.675,159.176,130.271z"/>
		<g>
			<path style="fill:#DBDBDB;" d="M120.578,156.541c0.007,4.786-2.166,6.536-8.373,5.255c-6.151-1.27-12.342-7.324-11.816-13.096
				c0.383-4.199,3.855-5.095,6.671-4.592C109.875,144.612,120.564,147.482,120.578,156.541z"/>
			<g>
				<path style="fill:#ABADAD;" d="M102.205,154.998c-0.603-0.846-1.093-1.786-1.393-2.799c-0.295-1.006-0.433-2.11-0.115-3.185
					c0.337-1.08,1.342-1.907,2.426-2.148c1.082-0.258,2.189-0.19,3.237,0.004c2.127,0.366,4.086,1.402,5.755,2.73
					c1.65,1.36,3.067,3.025,3.987,5.004c0.216,0.501,0.407,1.018,0.522,1.567c0.132,0.54,0.191,1.117,0.095,1.733
					c-0.086,0.603-0.526,1.312-1.174,1.54c-0.623,0.258-1.234,0.216-1.788,0.13c-1.115-0.198-2.105-0.653-3.036-1.181
					c-0.933-0.527-1.793-1.167-2.576-1.889c-0.785-0.718-1.504-1.517-2.094-2.41c-0.294-0.446-0.567-0.913-0.761-1.434
					c-0.101-0.257-0.169-0.538-0.189-0.837c-0.018-0.292,0.041-0.654,0.296-0.91c0.252-0.258,0.598-0.319,0.884-0.313
					c0.295,0.004,0.566,0.076,0.824,0.166c0.517,0.182,0.975,0.464,1.4,0.779c0.85,0.634,1.541,1.441,2.1,2.317
					c-0.646-0.813-1.396-1.543-2.251-2.099c-0.428-0.273-0.885-0.508-1.362-0.636c-0.454-0.134-1.019-0.153-1.239,0.124
					c-0.227,0.256-0.127,0.776,0.061,1.207c0.188,0.446,0.46,0.872,0.756,1.279c0.592,0.815,1.306,1.543,2.082,2.192
					c1.557,1.253,3.348,2.412,5.247,2.75c0.462,0.071,0.937,0.07,1.277-0.088c0.349-0.138,0.525-0.438,0.601-0.845
					c0.115-0.848-0.198-1.849-0.588-2.731c-1.664-3.596-5.073-6.497-8.983-7.39c-0.978-0.228-1.99-0.324-2.938-0.143
					c-0.948,0.177-1.76,0.791-2.113,1.699c-0.345,0.91-0.307,1.965-0.089,2.956C101.294,153.129,101.692,154.094,102.205,154.998z"
					/>
			</g>
			<path style="fill:#EEEEEE;" d="M110.273,140.088c0,0-5.056,2.882-7.544,4.558c6.859-0.282,15.842,5.455,17.684,13.71
				C123.003,153.661,117.041,143.646,110.273,140.088z"/>
			<path style="fill:#DFB091;" d="M151.743,134.307c-3.977,1.682-11.401,0.205-12.92-1.668c0.935-3.916,7.564-9.314,7.564-9.314
				L151.743,134.307z"/>
			<path style="fill:#FFFFFF;" d="M119.634,160.564c1.312-3.244,1.757-14.238-15.407-23.082
				c6.757-3.157,25.148-14.873,32.379-22.435c4.766-4.985,7.815-8.032,13.076-15.065c2.999-4.009,16.773-26.228,16.773-26.228
				c7.124-1.318,16.033,12.522,12.17,18.272c-5.794,4.413-19.648,17.566-28.692,28.062
				C135.967,136.294,119.634,160.564,119.634,160.564z"/>
			<path style="fill:#E8E8E8;" d="M129.05,121.603c3.009-2.318,5.666-4.58,7.556-6.557c4.628-4.84,7.644-7.865,12.631-14.476
				c4.843,2.249,7.983,5.821,9.784,9.667c-3.23,3.318-6.377,6.703-9.089,9.851c-4.026,4.672-8.248,10.014-12.219,15.252
				C136.984,130.277,134.77,125.581,129.05,121.603z"/>
			<path style="fill:#DFB091;" d="M141.007,106.194c0.318-1.053,1.783-4.638,4.043-5.376c2.26-0.737,4.716,0.625,6.422,3.833
				c1.433,2.696,1.737,5.598-0.46,7.479c-1.863,1.595-3.678-0.447-3.678-0.447L141.007,106.194z"/>
			<path style="fill:#DD9C79;" d="M136.647,109.876c1.219-2.109,3.309-4.638,5.851-4.212c2.542,0.426,5.274,3.034,6.484,5.587
				c1.21,2.553-0.214,4.689-1.668,5.204c-1.454,0.515-2.92,0.067-2.92,0.067L136.647,109.876z"/>
			<path style="fill:#DD9677;" d="M131.839,114.516c0.426-1.626,1.366-3.951,2.789-4.713c1.284-0.688,2.605-0.872,4.334,0.257
				c1.107,0.723,5.001,3.592,6.093,5.912c0.628,1.334,0.809,3.122-0.905,4.441c-1.612,1.241-4.141,0.066-4.141,0.066
				L131.839,114.516z"/>
			<path style="fill:#DD9C79;" d="M130.22,120.779c1.267,1.116,2.741,2.249,4.668,3.276c1.836,0.978,3.767,1.484,5.104,0.162
				c1.778-1.758,0.884-4.111-0.622-6.011c-1.915-2.417-6.229-4.747-8.553-3.786c-1.246,0.515-1.926,1.101-2.49,2.015
				c-0.805,1.304-0.701,3.444,0.271,5.52C129.244,121.527,130.22,120.779,130.22,120.779z"/>
			<path style="fill:#E6BEA6;" d="M160.323,118.272c-0.369-1.539-1.03-4.291-1.296-5.697c-0.395-2.087-0.843-1.894-2.915-2.17
				c-5.21-0.695-7.6-1.479-8.779-1.743c-1.179-0.265-4.597-0.97-4.067,3.535c0.317,2.693,5.766,4.777,5.766,4.777
				s-5.568,7.714-2.532,13.434c3.036,5.719,9.278,6.132,12.531,0.882C161.896,126.664,161.195,121.91,160.323,118.272z"/>
		</g>
		<path style="fill:#004D79;" d="M220.095,231.043c0,0-23.721-13.177-39.493-22.461c-15.303-9.008-29.547,7.287-23.259,15.173
			c10.385,13.022,54.834,45.87,54.834,45.87L220.095,231.043z"/>
		<path style="fill:#004D79;" d="M269.954,279.626c0,0,10.518,29.044,20.319,51.395c8.114,18.504,28.088,3.944,24.861-9.801
			c-5.832-24.84-34.569-79.93-34.569-79.93L269.954,279.626z"/>
		<path style="fill:#004D79;" d="M162.8,134.771c-2.197,6.102-17.453,13.303-21.724,9.154c3.797,55.57,13.302,76.059,16.267,79.83
			c3.199,4.068,25.987-3.711,24.008-13.803C177.69,191.279,165.851,148.807,162.8,134.771z"/>
		<path style="fill:#FFFFFF;" d="M263.654,236.798c-6.105,14.322-31.247,14.716-35.07-5.377c-1.833-0.213-3.628-0.411-5.357-0.589
			c2.061,4.915,10.536,36.721,22.969,60.747c8.029-14.261,20.35-48.501,22.748-53.674
			C267.309,237.54,265.53,237.169,263.654,236.798z"/>
		<path style="fill:#004D79;" d="M289.436,323.85c0,0,2.606,39.359,2.791,50.682c4.447,0,23.308,0.02,24.553,0.02
			c-0.182-22.071-0.414-46.688-1.651-52.463C313.891,316.315,289.436,323.85,289.436,323.85z"/>
		<g>
			<path style="fill:none;stroke:#008EAE;stroke-miterlimit:10;" d="M425.757,290.685c0,0.864-0.7,1.564-1.564,1.564
				c-0.864,0-1.564-0.7-1.564-1.564c0-0.864,0.7-1.564,1.564-1.564C425.057,289.121,425.757,289.821,425.757,290.685z"/>
			<circle style="fill:none;stroke:#008EAE;stroke-miterlimit:10;" cx="446.091" cy="321.246" r="6.136"/>
			<path style="fill:none;stroke:#008EAE;stroke-miterlimit:10;" d="M445.73,301.755c0,1.262-1.023,2.286-2.286,2.286
				c-1.263,0-2.286-1.023-2.286-2.286c0-1.263,1.023-2.286,2.286-2.286C444.707,299.469,445.73,300.492,445.73,301.755z"/>
			<path style="fill:none;stroke:#008EAE;stroke-miterlimit:10;" d="M441.782,264.72c0,1.065-0.863,1.928-1.928,1.928
				c-1.065,0-1.928-0.863-1.928-1.928c0-1.065,0.863-1.928,1.928-1.928C440.919,262.792,441.782,263.655,441.782,264.72z"/>
			<path style="fill:none;stroke:#008EAE;stroke-miterlimit:10;" d="M72.106,343.228c0,1.521-1.233,2.755-2.755,2.755
				c-1.521,0-2.755-1.233-2.755-2.755c0-1.521,1.233-2.755,2.755-2.755C70.872,340.474,72.106,341.707,72.106,343.228z"/>
			<circle style="fill:none;stroke:#008EAE;stroke-miterlimit:10;" cx="34.367" cy="368.296" r="4.132"/>
			<path style="fill:none;stroke:#008EAE;stroke-miterlimit:10;" d="M77.34,393.777c0,1.445-1.172,2.617-2.617,2.617
				c-1.445,0-2.617-1.172-2.617-2.617c0-1.445,1.172-2.617,2.617-2.617C76.168,391.16,77.34,392.331,77.34,393.777z"/>
		</g>
		<g>
			<polygon style="fill:#FFFFFF;" points="101.146,184.666 104.1,190.653 110.707,191.613 105.926,196.274 107.055,202.854 
				101.146,199.747 95.236,202.854 96.365,196.274 91.584,191.613 98.191,190.653 			"/>
			<polygon style="fill:#FFFFFF;" points="95.017,231.719 95.738,233.18 97.35,233.414 96.183,234.551 96.459,236.156 
				95.017,235.398 93.576,236.156 93.851,234.551 92.685,233.414 94.296,233.18 			"/>
			<polygon style="fill:#FFFFFF;" points="362.751,177.234 364.513,180.804 368.453,181.377 365.602,184.156 366.275,188.08 
				362.751,186.227 359.227,188.08 359.9,184.156 357.049,181.377 360.989,180.804 			"/>
			<polygon style="fill:#FFFFFF;" points="310.277,149.465 311.758,152.465 315.068,152.946 312.672,155.281 313.238,158.579 
				310.277,157.022 307.316,158.579 307.881,155.281 305.486,152.946 308.796,152.465 			"/>
			<polygon style="fill:#FFFFFF;" points="397.223,221.265 399.441,225.758 404.399,226.478 400.811,229.975 401.658,234.913 
				397.223,232.582 392.789,234.913 393.636,229.975 390.048,226.478 395.006,225.758 			"/>
		</g>
	</g>
</g>
</svg>
